<svg width="90" height="38" viewBox="0 0 90 38" fill="none" xmlns="http://www.w3.org/2000/svg">
<g clip-path="url(#clip0_1143:3949)">
<path d="M10.557 7.76177H4.85292V3.04503H13.503V0.46167H1.98145V17.4995H4.85292V10.2545H10.557V7.76177Z" fill="#0073DF"/>
<path d="M43.2572 0.46167H24.7852V3.04503H32.7877V17.4995H35.6625V3.04503H43.2572V0.46167Z" fill="#0073DF"/>
<path d="M82.2892 3.04503V0.46167H70.7773V17.4995H82.3604V14.9194H73.6521V10.3613H79.395V7.69378H73.6521V3.04503H82.2892Z" fill="#0073DF"/>
<path d="M15.3775 16.2468C15.9819 16.8278 16.6977 17.2804 17.4817 17.5773C19.1672 18.2033 21.0213 18.2033 22.7067 17.5773C23.4823 17.2808 24.1886 16.8279 24.7818 16.2468C25.3812 15.6488 25.8526 14.935 26.1674 14.149C26.5153 13.2661 26.6868 12.3236 26.6724 11.3747V0.568604H23.7783V11.2776C23.7742 11.7351 23.7099 12.19 23.5873 12.6308C23.4532 13.0986 23.2336 13.5377 22.9398 13.9257C22.6689 14.3299 22.3047 14.663 21.878 14.8969C21.3193 15.1828 20.6991 15.3273 20.0716 15.3177C19.4457 15.3375 18.8245 15.2041 18.2619 14.9292C17.8368 14.6944 17.4738 14.3615 17.2033 13.958C16.9083 13.5708 16.6886 13.1315 16.5559 12.6631C16.433 12.2224 16.3688 11.7674 16.3649 11.3099V0.568604H13.4999V11.3747C13.4856 12.3227 13.6537 13.2646 13.9952 14.149C14.304 14.9374 14.7749 15.652 15.3775 16.2468Z" fill="#0073DF"/>
<path d="M43.5839 16.2468C44.1816 16.8269 44.8909 17.2796 45.6687 17.5773C47.3553 18.2032 49.2104 18.2032 50.897 17.5773C51.6721 17.2799 52.3783 16.8272 52.9721 16.2468C53.5694 15.6477 54.0395 14.9342 54.3544 14.149C54.7034 13.2663 54.876 12.3238 54.8627 11.3747V0.568604H51.9815V11.2776C51.9789 11.7352 51.9147 12.1903 51.7905 12.6308C51.6577 13.0992 51.4381 13.5384 51.143 13.9257C50.87 14.3293 50.5049 14.6622 50.0779 14.8969C49.5095 15.1529 48.8933 15.2852 48.2699 15.2852C47.6465 15.2852 47.0303 15.1529 46.4619 14.8969C46.0361 14.6629 45.673 14.3297 45.4033 13.9257C45.1095 13.5377 44.8899 13.0986 44.7558 12.6308C44.633 12.19 44.5687 11.7351 44.5648 11.2776V0.568604H41.6804V11.3747C41.6674 12.3226 41.8355 13.2642 42.1757 14.149C42.4857 14.9376 42.9577 15.6522 43.5613 16.2468" fill="#0073DF"/>
<path d="M61.4863 10.3613L67.2358 17.5254H70.6802L64.4226 10.1736C64.4226 10.1736 65.847 9.95666 67.1516 8.39952C67.8459 7.52711 68.2053 6.43512 68.1649 5.32085C68.1948 4.50125 68.0142 3.68764 67.6404 2.95763C67.3058 2.35559 66.8234 1.84868 66.2387 1.48466C65.6153 1.11042 64.9301 0.850593 64.2154 0.717422C63.4306 0.562918 62.6325 0.485932 61.8327 0.487575L56.8408 0.51671V17.5546L59.7123 17.5254V10.3257H61.454L61.4863 10.3613ZM59.7123 7.77148V2.92526H61.5673C61.9741 2.92646 62.3805 2.95132 62.7845 2.99971C63.1853 3.04677 63.5763 3.15599 63.9434 3.32344C64.295 3.48049 64.5955 3.73281 64.811 4.05183C65.0439 4.43276 65.1567 4.87494 65.1348 5.32085C65.1626 5.80788 65.0369 6.29136 64.7754 6.70318C64.5417 7.03909 64.2204 7.30446 63.8463 7.47042C63.4495 7.61154 63.0337 7.69229 62.6129 7.70998C62.1759 7.74882 61.7324 7.76825 61.2921 7.76825L59.7123 7.77148Z" fill="#0073DF"/>
<path d="M4.8594 0.46167H1.98145V3.04503H4.8594V0.46167Z" fill="#9FDA00"/>
<path d="M7.73342 0.46167H4.85547V3.04503H7.73342V0.46167Z" fill="#00C3FF"/>
<path d="M4.89846 7.75537H2.02051V10.3387H4.89846V7.75537Z" fill="#00C3FF"/>
<path d="M59.7217 7.72632H56.8438V10.3097H59.7217V7.72632Z" fill="#00C3FF"/>
<path d="M65.9534 29.921L71.6996 37.0884H75.1474L68.8864 29.7494C68.8864 29.7494 70.3141 29.5358 71.6187 27.9786C72.3119 27.1058 72.6702 26.0138 72.6288 24.9C72.6597 24.0806 72.4802 23.2671 72.1075 22.5367C71.772 21.9354 71.2898 21.4287 70.7058 21.0638C70.0822 20.685 69.3959 20.4207 68.6792 20.2836C67.8956 20.1291 67.0986 20.0521 66.2998 20.0537L61.3047 20.0829V37.1207L64.1794 37.0916V29.8919H65.9178L65.9534 29.921ZM64.1794 27.3312V22.4914H66.0409C66.4466 22.4926 66.852 22.5175 67.2548 22.5659C67.6567 22.6126 68.0489 22.7218 68.417 22.8896C68.7634 23.0459 69.061 23.2932 69.2782 23.605C69.511 23.986 69.6238 24.4282 69.6019 24.8741C69.6291 25.3606 69.5047 25.8436 69.2458 26.2564C69.011 26.5913 68.6899 26.8564 68.3167 27.0236C67.9201 27.1651 67.5041 27.2448 67.0833 27.26C66.6462 27.302 66.1995 27.3215 65.7592 27.3215L64.1794 27.3312Z" fill="#0073DF"/>
<path d="M64.1856 27.2922H61.3076V29.8756H64.1856V27.2922Z" fill="#00C3FF"/>
<path d="M82.3174 0.477783H79.4395V3.06114H82.3174V0.477783Z" fill="#00C3FF"/>
<path d="M26.6621 0.46167H23.7842V3.04503H26.6621V0.46167Z" fill="#00C3FF"/>
<path d="M44.6035 0.46167H41.7256V3.04503H44.6035V0.46167Z" fill="#00C3FF"/>
<path d="M10.6114 0.46167H7.7334V3.04503H10.6114V0.46167Z" fill="#0073DF"/>
<path d="M13.4903 0.46167H10.6123V3.04503H13.4903V0.46167Z" fill="#9FDA00"/>
<path d="M70.7901 14.9163H67.9121V17.4996H70.7901V14.9163Z" fill="#0073DF"/>
<path d="M73.6651 14.9163H70.7871V17.4996H73.6651V14.9163Z" fill="#9FDA00"/>
<path d="M28.4561 20.0085V37.0464H37.2906V34.4631H31.3308V20.0085H28.4561Z" fill="#0073DF"/>
<path d="M37.2129 20.0085V37.0464H46.3065V34.4631H40.0876V20.0085H37.2129Z" fill="#0073DF"/>
<path d="M59.3818 37.043V26.7678C59.394 25.6978 59.2232 24.6336 58.8768 23.6212C58.5608 22.8379 58.0806 22.1314 57.4686 21.5493C56.859 20.9749 56.1416 20.527 55.3578 20.2317C53.6375 19.6145 51.7561 19.6145 50.0357 20.2317C49.2463 20.5233 48.5239 20.9715 47.9121 21.5493C47.3055 22.136 46.8261 22.8413 46.5038 23.6212C46.1498 24.632 45.9745 25.6968 45.9859 26.7678V37.043H48.8606V32.3845H56.52V37.043H59.3818ZM56.4941 29.921H48.8347V26.7646C48.8364 26.1787 48.9015 25.5948 49.0289 25.0229C49.1365 24.5567 49.3357 24.1166 49.6149 23.728C49.9372 23.3182 50.3477 22.9862 50.8159 22.7568C51.3979 22.5028 52.0261 22.3717 52.6612 22.3717C53.2962 22.3717 53.9244 22.5028 54.5064 22.7568C54.9741 22.9871 55.3844 23.3189 55.7075 23.728C55.9863 24.1171 56.1865 24.557 56.2966 25.0229C56.4255 25.5946 56.4917 26.1786 56.4941 26.7646V29.921Z" fill="#0073DF"/>
<path d="M5.39005 20.2287C4.32559 20.6312 3.35653 21.2508 2.54447 22.048C1.73147 22.862 1.09552 23.8352 0.676552 24.9066C0.214784 26.0916 -0.0149138 27.3544 -4.2484e-05 28.6262C-0.0175933 29.8782 0.212339 31.1214 0.676552 32.2844C1.09659 33.3401 1.73297 34.2963 2.54475 35.0914C3.35654 35.8864 4.32575 36.5028 5.39005 36.9007C6.5514 37.3396 7.78409 37.5591 9.02553 37.5482C10.2081 37.5607 11.3798 37.3224 12.4635 36.8489L11.1136 34.5051C10.4648 34.7821 9.76952 34.9336 9.06438 34.9519C8.21056 34.9654 7.3638 34.7954 6.58137 34.4533C5.86246 34.1321 5.21687 33.6672 4.68432 33.0872C4.14501 32.4899 3.72816 31.7926 3.45739 31.0348C3.16493 30.2029 3.01924 29.3266 3.02683 28.4449C3.02075 27.6095 3.16778 26.78 3.46062 25.9975C3.73578 25.26 4.15135 24.5827 4.68432 24.0034C5.21781 23.4309 5.86361 22.9747 6.58137 22.6631C7.36617 22.33 8.21192 22.1646 9.06438 22.1775C9.65962 22.191 10.2488 22.3003 10.8093 22.5013L12.1495 20.1736C11.1622 19.7761 10.106 19.578 9.04172 19.5909C7.80027 19.58 6.56758 19.7996 5.40624 20.2384" fill="#0073DF"/>
<path d="M26.1639 21.9735C25.406 21.1869 24.4857 20.5749 23.4673 20.18C22.409 19.7772 21.2846 19.5763 20.1523 19.5876H20.0131C18.8421 19.5775 17.6806 19.7975 16.5945 20.2351C15.5849 20.6433 14.6734 21.2612 13.9205 22.048C13.15 22.8729 12.5523 23.8438 12.1626 24.9032C11.7218 26.0989 11.5024 27.3648 11.5152 28.6391C11.5024 29.8838 11.722 31.1201 12.1626 32.2843C12.5558 33.3305 13.1534 34.2879 13.9205 35.1007C14.6761 35.8842 15.5884 36.4997 16.5977 36.9071C17.6839 37.3447 18.8454 37.5647 20.0163 37.5546C21.2004 37.5534 22.3728 37.3203 23.4673 36.8683C24.4837 36.4452 25.4025 35.8183 26.1672 35.0263C26.9403 34.2076 27.5414 33.2422 27.9347 32.1872C28.3738 31.0225 28.5933 29.7866 28.5822 28.542C28.5945 27.272 28.3751 26.0103 27.9347 24.8191C27.5419 23.7611 26.9396 22.7932 26.1639 21.9735ZM25.1701 31.0088C24.9291 31.7524 24.549 32.4434 24.05 33.045C23.5701 33.6139 22.9755 34.075 22.3051 34.3982C21.5966 34.7314 20.8218 34.8996 20.039 34.8903C19.2559 34.9022 18.4805 34.7338 17.7729 34.3982C17.1064 34.0731 16.5154 33.6122 16.0377 33.045C15.5387 32.4434 15.1586 31.7524 14.9176 31.0088C14.6476 30.1812 14.5142 29.3153 14.5226 28.4448C14.5193 27.6253 14.6539 26.8111 14.9208 26.0363C15.1693 25.3146 15.549 24.6452 16.0409 24.0615C16.5307 23.4825 17.1433 23.0198 17.8344 22.7074C18.5254 22.3949 19.2775 22.2404 20.0357 22.2551C20.8173 22.2443 21.5915 22.408 22.3018 22.7343C22.9731 23.0459 23.5694 23.4987 24.05 24.0615C24.543 24.6443 24.9229 25.3141 25.1701 26.0363C25.4391 26.8108 25.5759 27.625 25.5747 28.4448C25.5829 29.3152 25.4495 30.1812 25.1798 31.0088" fill="#0073DF"/>
<path d="M83.7131 34.3659C84.0132 33.7881 84.1853 33.1525 84.2177 32.5022C84.2501 31.852 84.1421 31.2024 83.9009 30.5976C83.3894 29.3027 82.1786 28.3121 80.806 27.6647C78.2906 26.483 77.4651 25.2302 77.6043 24.0842C77.7079 23.2393 78.3845 22.2292 79.8704 22.3296C80.8815 22.3937 81.8707 22.652 82.784 23.0904L83.8458 21.0444C81.4761 19.6006 79.0417 19.4257 77.0119 20.6138C76.3655 20.9666 75.8278 21.4893 75.4569 22.1255C75.0861 22.7617 74.8961 23.4871 74.9077 24.2234C74.8928 25.0745 75.0823 25.9167 75.4603 26.6794C75.8383 27.4421 76.3937 28.103 77.0799 28.6067C77.7703 29.1357 78.5335 29.562 79.346 29.8725C80.3787 30.3095 81.1589 30.9602 81.4179 31.6498C81.5411 31.9969 81.5661 32.3713 81.4901 32.7317C81.4142 33.0922 81.2402 33.4246 80.9873 33.6925C80.5049 34.2525 79.6309 34.518 78.5205 34.518L73.043 34.4533V37.0431L78.3262 37.0949C80.2945 37.0949 82.4894 36.7712 83.7131 34.3626" fill="#0073DF"/>
<path d="M48.8535 34.4629H45.9756V37.0463H48.8535V34.4629Z" fill="#00C3FF"/>
<path d="M39.916 34.4629H37.0381V37.0463H39.916V34.4629Z" fill="#00C3FF"/>
<path d="M76.6885 34.4629H73.8105V37.0463H76.6885V34.4629Z" fill="#00C3FF"/>
<path d="M90 34.4629H87.1221V37.0463H90V34.4629Z" fill="#9FDA00"/>
<path d="M31.334 27.3184H28.4561V29.9017H31.334V27.3184Z" fill="#9FDA00"/>
</g>
<defs>
<clipPath id="clip0_1143:3949">
<rect width="90" height="37.0767" fill="white" transform="translate(0 0.46167)"/>
</clipPath>
</defs>
</svg>
